<?xml version="1.0" encoding="UTF-8" standalone="no"?>
<svg width="88px" height="86px" viewBox="0 0 88 86" version="1.1" xmlns="http://www.w3.org/2000/svg" xmlns:xlink="http://www.w3.org/1999/xlink">
    <!-- Generator: Sketch 41.2 (35397) - http://www.bohemiancoding.com/sketch -->
    <title>Group 5</title>
    <desc>Created with Sketch.</desc>
    <defs></defs>
    <g id="Page-1" stroke="none" stroke-width="1" fill="none" fill-rule="evenodd">
        <g id="Kass-Website" transform="translate(-947.000000, -1156.000000)" fill="#4A4A4A">
            <g id="Service" transform="translate(146.000000, 1067.000000)">
                <g id="Group-5" transform="translate(801.000000, 89.000000)">
                    <g id="Group-2">
                        <g id="tool-(2)" transform="translate(0.579073, 0.040013)">
                            <g id="Capa_1">
                                <path d="M84.3820501,40.681988 L77.3060668,40.681988 C77.0048962,35.7962812 75.6439491,31.1913242 73.4484797,27.0916616 L82.3470018,28.2099768 C82.4353858,28.2212729 82.5232157,28.2267832 82.6102143,28.2267832 C83.6417303,28.2267832 84.5366528,27.4633313 84.6693673,26.4191296 C84.8131645,25.2870386 84.006903,24.2530309 82.8684396,24.1100387 L70.5287604,22.5594405 C68.2859128,19.6260327 65.5687285,17.0703559 62.4896963,15.0081264 L70.5373494,11.7595295 C71.6007279,11.3302772 72.1130226,10.1248993 71.681077,9.06747286 C71.2491314,8.01004644 70.0375227,7.50061928 68.9741442,7.93014711 L57.8649141,12.4147041 C54.2120787,10.7285526 50.2059843,9.67663644 45.9895971,9.40084596 L51.6780349,3.74424831 C52.4895606,2.93698948 52.4895606,1.62884445 51.6780349,0.821861127 C50.8665092,0.0151533228 49.5507237,0.0151533228 48.7394751,0.821861127 L39.9731134,9.53915447 C36.5474719,9.92294681 33.276156,10.8205746 30.2392379,12.1529649 L32.6111981,4.88377819 C32.9652882,3.79852476 32.3676573,2.63282096 31.2760181,2.28071284 C30.1841018,1.92860472 29.0123905,2.52289049 28.6580234,3.60841944 L24.9115397,15.0896789 C22.1829958,16.9342515 19.741492,19.1678513 17.6659921,21.7083748 L15.2048167,13.4944472 C14.8770478,12.4006529 13.7200211,11.7771625 12.6200699,12.1041988 C11.5201187,12.430133 10.894227,13.5806834 11.2219959,14.6744778 L14.6384942,26.0761134 C13.1185112,28.6913014 11.9451376,31.5291055 11.1798819,34.5272593 L3.36939713,28.3675714 C2.47031862,27.6583958 1.1631222,27.808276 0.44995485,28.7025975 C-0.263212505,29.5966436 -0.112211647,30.8965232 0.786866856,31.6054232 L10.3456368,39.143788 C10.2905007,39.6532152 10.2475555,40.1659485 10.2156929,40.6817125 L3.13943252,40.6817125 C1.991826,40.6817125 1.06143906,41.6066162 1.06143906,42.7480747 C1.06143906,43.8895332 1.991826,44.8144369 3.13943252,44.8144369 L82.2483664,44.8144369 C81.1658703,64.9920506 64.3166682,81.0755119 43.7606028,81.0755119 C27.1746131,81.0755119 12.4870783,70.5781164 7.21257676,54.954214 C6.84740404,53.8722668 5.66848909,53.2887261 4.58128291,53.6526813 C3.49324554,54.01581 2.90725138,55.1872997 3.27270116,56.2692469 C9.1165729,73.5790253 25.3875387,85.2085118 43.7608798,85.2085118 C67.3053769,85.2085118 86.4600435,66.160785 86.4600435,42.7483502 C86.4600435,41.6068917 85.5296566,40.681988 84.3820501,40.681988 L84.3820501,40.681988 Z M37.0630913,40.681988 C37.364816,37.2697352 40.2523957,34.5840154 43.7608798,34.5840154 C45.5570974,34.5840154 47.2460905,35.2796907 48.5164371,36.5429268 C49.3279628,37.3496346 50.6437483,37.3496346 51.4549969,36.5429268 C52.2665227,35.7356679 52.2665227,34.4275229 51.4549969,33.6205396 C49.3997229,31.5767696 46.6673,30.451291 43.7606028,30.451291 C37.9596762,30.451291 33.2052272,34.9887469 32.8960218,40.681988 L14.3797147,40.681988 C14.7072065,36.0340506 16.1299394,31.6825674 18.3921816,27.8801854 C18.6146654,27.6553652 18.7811819,27.3826054 18.8814798,27.0850492 C21.0755638,23.6513063 23.9678536,20.6997145 27.3588619,18.4308488 C27.645902,18.3245 27.9080063,18.1578135 28.1238405,17.9374015 C32.6582993,15.101526 38.0195224,13.4580793 43.7606028,13.4580793 C48.3332966,13.4580793 52.6660515,14.4998013 56.5316735,16.3567722 C56.7250654,16.4964583 56.9392373,16.6050111 57.1678166,16.6719613 C66.1048508,21.233938 72.4039417,30.2074603 73.1417679,40.681988 L37.0630913,40.681988 L37.0630913,40.681988 Z" id="Shape"></path>
                            </g>
                        </g>
                    </g>
                </g>
            </g>
        </g>
    </g>
</svg>