<?xml version="1.0" encoding="UTF-8" standalone="no"?>
<svg width="56px" height="50px" viewBox="0 0 56 50" version="1.1" xmlns="http://www.w3.org/2000/svg" xmlns:xlink="http://www.w3.org/1999/xlink">
    <!-- Generator: Sketch 41.2 (35397) - http://www.bohemiancoding.com/sketch -->
    <title>noun_386314_cc</title>
    <desc>Created with Sketch.</desc>
    <defs></defs>
    <g id="Page-1" stroke="none" stroke-width="1" fill="none" fill-rule="evenodd">
        <g id="Kass-Website" transform="translate(-148.000000, -2739.000000)">
            <g id="PROCESS" transform="translate(-4.000000, 2134.000000)">
                <g id="noun_386314_cc" transform="translate(152.000000, 605.000000)">
                    <g id="Group">
                        <g id="Shape">
                            <path d="M55.72,47.8651685 L49.448,36.2921348 C49.224,35.8988764 48.776,35.6179775 48.328,35.6179775 L31.808,35.6179775 C31.808,35.505618 31.864,35.4494382 31.864,35.3370787 L31.864,32.0786517 L31.864,32.0224719 L49.112,32.0224719 C49.84,32.0224719 50.4,31.4606742 50.4,30.7303371 L50.4,1.79775281 C50.4,1.06741573 49.84,0.505617978 49.112,0.505617978 L6.944,0.505617978 C6.216,0.505617978 5.656,1.06741573 5.656,1.79775281 L5.656,30.6741573 C5.656,31.4044944 6.216,31.9662921 6.944,31.9662921 L24.192,31.9662921 L24.192,32.0224719 L24.192,35.2808989 C24.192,35.3932584 24.192,35.4494382 24.248,35.5617978 L6.384,35.5617978 C5.88,35.5617978 5.432,35.8426966 5.208,36.3483146 L0.112,48.1460674 C-0.056,48.5393258 1.11490678e-14,48.988764 0.224,49.3258427 C0.448,49.6629213 0.84,49.8876404 1.288,49.8876404 L54.712,49.8876404 L54.712,49.8876404 C55.44,49.8876404 56,49.3258427 56,48.5955056 C56,48.3707865 55.888,48.0898876 55.72,47.8651685 L55.72,47.8651685 Z M50.344,43.258427 L45.024,43.258427 L44.912,42.6404494 L44.576,41.011236 L49.168,41.011236 L50.344,43.258427 L50.344,43.258427 Z M13.216,41.011236 L19.768,41.011236 L19.6,42.6966292 L19.544,43.258427 L12.712,43.258427 L12.768,42.9213483 L13.216,41.011236 L13.216,41.011236 Z M20.048,38.1460674 L19.88,39.7191011 L13.496,39.7191011 L13.832,38.1460674 L20.048,38.1460674 L20.048,38.1460674 Z M35.616,42.8651685 L35.672,43.258427 L28.84,43.258427 L28.84,42.752809 L28.84,41.011236 L35.448,41.011236 L35.616,42.8651685 L35.616,42.8651685 Z M27.608,42.752809 L27.608,43.258427 L20.776,43.258427 L20.832,42.8651685 L21.056,41.0674157 L27.664,41.0674157 L27.608,42.752809 L27.608,42.752809 Z M19.376,44.5505618 L19.04,47.4157303 L11.76,47.4157303 L12.376,44.5505618 L19.376,44.5505618 L19.376,44.5505618 Z M20.608,44.5505618 L27.552,44.5505618 L27.552,47.4157303 L20.272,47.4157303 L20.608,44.5505618 L20.608,44.5505618 Z M28.84,44.5505618 L35.84,44.5505618 L36.176,47.4157303 L28.896,47.4157303 L28.84,44.5505618 L28.84,44.5505618 Z M37.072,44.5505618 L44.016,44.5505618 L44.632,47.4157303 L37.352,47.4157303 L37.072,44.5505618 L37.072,44.5505618 Z M36.96,43.258427 L36.904,42.6966292 L36.736,41.011236 L43.288,41.011236 L43.68,42.9213483 L43.736,43.258427 L36.96,43.258427 L36.96,43.258427 Z M42.616,38.1460674 L42.952,39.7191011 L36.568,39.7191011 L36.4,38.1460674 L42.616,38.1460674 L42.616,38.1460674 Z M48.44,39.7752809 L44.296,39.7752809 L43.96,38.2022472 L47.6,38.2022472 L48.44,39.7752809 L48.44,39.7752809 Z M35.112,38.1460674 L35.28,39.7191011 L28.84,39.7191011 L28.84,38.1460674 L35.112,38.1460674 L35.112,38.1460674 Z M26.712,35.3370787 L26.712,32.0786517 L29.232,32.0786517 L29.232,35.3370787 L26.712,35.3370787 L26.712,35.3370787 Z M8.176,29.4382022 L8.176,3.08988764 L47.768,3.08988764 L47.768,29.4382022 L8.176,29.4382022 L8.176,29.4382022 Z M27.608,38.1460674 L27.608,39.7191011 L21.168,39.7191011 L21.336,38.1460674 L27.608,38.1460674 L27.608,38.1460674 Z M7.224,38.1460674 L12.544,38.1460674 L12.208,39.7191011 L6.496,39.7191011 L7.224,38.1460674 L7.224,38.1460674 Z M5.992,41.011236 L11.928,41.011236 L11.592,42.6404494 L11.424,43.258427 L4.984,43.258427 L5.992,41.011236 L5.992,41.011236 Z M4.48,44.5505618 L11.144,44.5505618 L10.528,47.4157303 L3.248,47.4157303 L4.48,44.5505618 L4.48,44.5505618 Z M45.92,47.4157303 L45.304,44.5505618 L51.016,44.5505618 L52.584,47.4157303 L45.92,47.4157303 L45.92,47.4157303 Z" fill="#FFFFFF"></path>
                            <path d="M12.656,17.0786517 C12.656,16.8539326 12.544,16.6292135 12.32,16.5168539 C12.04,16.3483146 11.648,16.4606742 11.48,16.741573 L11.2,17.3033708 C11.088,17.5280899 11.088,17.752809 11.2,17.9213483 C11.312,18.0898876 11.536,18.258427 11.76,18.258427 L12.376,18.258427 C12.712,18.258427 12.992,17.9775281 12.992,17.6404494 C12.992,17.3595506 12.88,17.1348315 12.656,17.0786517 L12.656,17.0786517 Z" fill="#FFFFFF"></path>
                            <path d="M14.504,12.5842697 C14.224,12.4157303 13.832,12.5280899 13.664,12.8089888 L12.936,14.1011236 C12.768,14.4382022 12.88,14.7752809 13.16,14.9438202 C13.272,15 13.384,15 13.44,15 C13.664,15 13.888,14.8876404 14,14.6629213 L14.728,13.3707865 C14.896,13.1460674 14.784,12.752809 14.504,12.5842697 L14.504,12.5842697 Z" fill="#FFFFFF"></path>
                            <path d="M15.568,11.1235955 C15.792,11.1235955 16.016,11.011236 16.128,10.7865169 L16.856,9.49438202 C17.024,9.15730337 16.912,8.82022472 16.632,8.65168539 C16.352,8.48314607 15.96,8.59550562 15.792,8.87640449 L15.064,10.1685393 C14.896,10.505618 15.008,10.8988764 15.288,11.0674157 C15.4,11.1235955 15.512,11.1235955 15.568,11.1235955 Z" fill="#FFFFFF"></path>
                            <path d="M18.928,6.29213483 L18.648,5.73033708 C18.424,5.33707865 17.752,5.33707865 17.528,5.73033708 L17.248,6.29213483 C17.08,6.57303371 17.192,6.96629213 17.472,7.13483146 C17.696,7.24719101 17.92,7.24719101 18.088,7.13483146 C18.2,7.19101124 18.312,7.19101124 18.368,7.19101124 C18.48,7.19101124 18.592,7.19101124 18.648,7.13483146 C18.984,7.02247191 19.096,6.62921348 18.928,6.29213483 L18.928,6.29213483 Z" fill="#FFFFFF"></path>
                            <path d="M22.12,14.7752809 C22.232,15 22.456,15.1123596 22.68,15.1123596 C22.792,15.1123596 22.904,15.1123596 22.96,15.0561798 C23.296,14.8876404 23.408,14.494382 23.184,14.2134831 L22.456,12.9213483 C22.288,12.5842697 21.896,12.4719101 21.616,12.6966292 C21.28,12.8651685 21.168,13.258427 21.392,13.5393258 L22.12,14.7752809 L22.12,14.7752809 Z" fill="#FFFFFF"></path>
                            <path d="M19.992,10.8426966 C20.104,11.0674157 20.328,11.1797753 20.552,11.1797753 C20.664,11.1797753 20.776,11.1797753 20.832,11.1235955 C21.168,10.9550562 21.28,10.5617978 21.056,10.2808989 L20.328,8.98876404 C20.16,8.65168539 19.768,8.53932584 19.488,8.76404494 C19.152,8.93258427 19.04,9.3258427 19.264,9.60674157 L19.992,10.8426966 L19.992,10.8426966 Z" fill="#FFFFFF"></path>
                            <path d="M16.632,16.9662921 L15.232,16.9662921 C14.896,16.9662921 14.616,17.247191 14.616,17.5842697 C14.616,17.9213483 14.896,18.2022472 15.232,18.2022472 L16.632,18.2022472 C16.968,18.2022472 17.248,17.9213483 17.248,17.5842697 C17.248,17.247191 17.024,16.9662921 16.632,16.9662921 L16.632,16.9662921 Z" fill="#FFFFFF"></path>
                            <path d="M21.56,17.5842697 C21.56,17.247191 21.28,16.9662921 20.944,16.9662921 L19.544,16.9662921 C19.208,16.9662921 18.928,17.247191 18.928,17.5842697 C18.928,17.9213483 19.208,18.2022472 19.544,18.2022472 L20.944,18.2022472 C21.28,18.258427 21.56,17.9775281 21.56,17.5842697 L21.56,17.5842697 Z" fill="#FFFFFF"></path>
                            <path d="M38.36,13.8202247 C38.136,13.4269663 37.464,13.4269663 37.24,13.8202247 L37.128,14.0449438 L37.128,14.0449438 L34.16,19.494382 L28.84,9.7752809 C28.728,9.5505618 28.504,9.43820225 28.28,9.43820225 C28.056,9.43820225 27.832,9.5505618 27.72,9.7752809 L21.336,21.3483146 C21.224,21.5730337 21.224,21.7977528 21.336,21.9662921 C21.448,22.1348315 21.672,22.3033708 21.896,22.3033708 L32.592,22.3033708 L31.136,25 L31.136,25 L30.912,25.3932584 C30.8,25.6179775 30.8,25.8426966 30.912,26.011236 C31.024,26.1797753 31.248,26.3483146 31.472,26.3483146 L44.184,26.3483146 L44.184,26.3483146 C44.52,26.3483146 44.8,26.0674157 44.8,25.7303371 C44.8,25.5617978 44.744,25.3932584 44.632,25.2808989 L38.36,13.8202247 L38.36,13.8202247 Z M22.96,21.011236 L28.224,11.4044944 L33.376,20.7865169 L33.264,20.9550562 L22.96,20.9550562 L22.96,21.011236 Z M32.536,25.0561798 L37.8,15.4494382 L38.528,16.741573 L33.936,25.0561798 L32.536,25.0561798 L32.536,25.0561798 Z M35.392,25.0561798 L39.256,18.0337079 L39.984,19.3258427 L36.848,25.0561798 L35.392,25.0561798 L35.392,25.0561798 Z M38.248,25.0561798 L40.656,20.6741573 L41.384,21.9662921 L39.704,25.0561798 L38.248,25.0561798 L38.248,25.0561798 Z M42.504,25.0561798 L41.104,25.0561798 L42.112,23.258427 L42.84,24.5505618 L42.504,25.0561798 L42.504,25.0561798 Z" fill="#E21318"></path>
                        </g>
                    </g>
                </g>
            </g>
        </g>
    </g>
</svg>