<?xml version="1.0" encoding="UTF-8" standalone="no"?>
<svg width="58px" height="58px" viewBox="0 0 58 58" version="1.1" xmlns="http://www.w3.org/2000/svg" xmlns:xlink="http://www.w3.org/1999/xlink">
    <!-- Generator: Sketch 41.2 (35397) - http://www.bohemiancoding.com/sketch -->
    <title>Group 6</title>
    <desc>Created with Sketch.</desc>
    <defs></defs>
    <g id="Page-1" stroke="none" stroke-width="1" fill="none" fill-rule="evenodd">
        <g id="Kass-Website" transform="translate(-466.000000, -2740.000000)">
            <g id="PROCESS" transform="translate(-4.000000, 2134.000000)">
                <g id="Group-6" transform="translate(470.000000, 605.000000)">
                    <g id="noun_118154_cc" fill="#FFFFFF">
                        <g id="Group">
                            <g transform="translate(0.000000, 0.432558)" id="Shape">
                                <path d="M28.9380884,0.585944598 C28.6975233,0.595438851 28.4617465,0.656134253 28.2465395,0.764707816 L1.26979535,14.3279262 C0.0286627907,14.9532584 0.0286627907,16.734448 1.26979535,17.3597802 L11.7417628,22.6248182 L1.26979535,27.8898425 C0.0269767442,28.5147 0.0269767442,30.2981276 1.26979535,30.9229851 L11.7417628,36.188023 L1.26979535,41.4531287 C0.0269767442,42.0779862 0.0269767442,43.8614138 1.26979535,44.4862713 L28.2465395,58.0494897 C28.7209256,58.2877276 29.2790744,58.2877276 29.7534605,58.0494897 L56.7302047,44.4862713 C57.9730233,43.8614138 57.9730233,42.0779862 56.7302047,41.4531287 L46.2582372,36.188023 L56.7302047,30.9229851 C57.9730233,30.2981276 57.9730233,28.5147 56.7302047,27.8898425 L46.2582372,22.6248182 L56.7302047,17.3597802 C57.9713372,16.734448 57.9713372,14.9532584 56.7302047,14.3279262 L29.7534605,0.764707816 C29.5008907,0.637349195 29.2204674,0.575907816 28.9380884,0.585944598 L28.9380884,0.585944598 Z M29.0001349,4.17538253 L52.2082953,15.843209 L29.0001349,27.5110354 L5.79197442,15.843209 L29.0001349,4.17538253 Z M15.5117628,24.5202101 L28.2466744,30.9229851 C28.7210605,31.161223 29.2792093,31.161223 29.7535953,30.9229851 L42.488507,24.5202101 L52.207014,29.4064138 L29.0001349,41.074308 L5.79325581,29.4064138 L15.5117628,24.5202101 Z M15.5117628,38.0834149 L28.2466744,44.4862713 C28.7210605,44.7245092 29.2792093,44.7245092 29.7535953,44.4862713 L42.488507,38.0834149 L52.207014,42.9697 L29.0001349,54.6375264 L5.79325581,42.9697 L15.5117628,38.0834149 Z"></path>
                            </g>
                        </g>
                    </g>
                    <polyline id="Path-318" stroke="#D0011B" stroke-width="4" stroke-linecap="square" stroke-linejoin="round" points="44.9534144 24.1195213 55.9727255 29.9826568 28.8988653 43.6061233 1.97682134 29.9826568 13.9027304 23.7645248"></polyline>
                    <polygon id="Path-319" fill="#FFFFFF" points="48.9468497 21.7452369 39.1585277 26.5934855 39.9761236 23.065412 44.8284173 20.1194217"></polygon>
                    <polygon id="Path-320" fill="#FFFFFF" points="17.345443 25.9020491 10.5916168 22.4666298 12.2855449 20.8724739 14.3459162 20.8260113 15.2368974 21.2901481 18.3157775 24.6360658"></polygon>
                </g>
            </g>
        </g>
    </g>
</svg>