<?xml version="1.0" encoding="UTF-8" standalone="no"?>
<svg width="88px" height="78px" viewBox="0 0 88 78" version="1.1" xmlns="http://www.w3.org/2000/svg" xmlns:xlink="http://www.w3.org/1999/xlink">
    <!-- Generator: Sketch 41.2 (35397) - http://www.bohemiancoding.com/sketch -->
    <title>noun_168223_cc</title>
    <desc>Created with Sketch.</desc>
    <defs></defs>
    <g id="Page-1" stroke="none" stroke-width="1" fill="none" fill-rule="evenodd">
        <g id="Kass-Website" transform="translate(-938.000000, -1699.000000)" stroke="#4A4A4A" fill="#4A4A4A">
            <g id="Service" transform="translate(146.000000, 1067.000000)">
                <g id="noun_168223_cc" transform="translate(793.000000, 633.000000)">
                    <g id="Group">
                        <path d="M63.6021978,6.62037037 L63.6021978,2.64814815 C63.6021978,1.32407407 62.4681319,0.189153439 61.1450549,0.189153439 L24.3824176,0.189153439 C23.0593407,0.189153439 21.9252747,1.32407407 21.9252747,2.64814815 L21.9252747,6.62037037 L2.45714286,6.62037037 C1.13406593,6.62037037 0,7.66071429 0,9.07936508 L0,10.0251323 C0,11.3492063 1.13406593,12.484127 2.45714286,12.484127 L21.9252747,12.484127 L21.9252747,43.7890212 C21.9252747,45.1130952 23.0593407,46.2480159 24.3824176,46.2480159 L33.2659341,46.2480159 L35.7230769,53.8141534 C35.8175824,54.1924603 36.1956044,54.4761905 36.6681319,54.4761905 L37.2351648,54.4761905 C37.1406593,54.7599206 37.0461538,55.1382275 37.0461538,55.5165344 L37.0461538,57.8809524 C37.0461538,59.4887566 38.3692308,60.8128307 39.9758242,60.8128307 L40.6373626,60.8128307 L40.6373626,73.202381 C40.6373626,74.526455 41.6769231,75.5667989 43,75.5667989 C44.3230769,75.5667989 45.3626374,74.526455 45.3626374,73.202381 L45.3626374,60.9074074 C47.0637363,60.9074074 48.3868132,59.5833333 48.3868132,57.9755291 L48.3868132,55.6111111 C48.3868132,55.2328042 48.2923077,54.9490741 48.1978022,54.5707672 L48.8593407,54.5707672 C49.2373626,54.5707672 49.6153846,54.287037 49.8043956,53.9087302 L52.2615385,46.3425926 L61.1450549,46.3425926 C62.4681319,46.3425926 63.6021978,45.207672 63.6021978,43.8835979 L63.6021978,12.484127 L83.0703297,12.484127 C84.3934066,12.484127 85.5274725,11.3492063 85.5274725,10.0251323 L85.5274725,9.07936508 C85.5274725,7.66071429 84.3934066,6.62037037 83.0703297,6.62037037 L63.6021978,6.62037037 Z M2.45714286,10.4980159 C2.17362637,10.4980159 1.98461538,10.3088624 1.98461538,10.0251323 L1.98461538,9.07936508 C1.98461538,8.79563492 2.17362637,8.60648148 2.45714286,8.60648148 L21.9252747,8.60648148 L21.9252747,10.5925926 L2.45714286,10.5925926 L2.45714286,10.4980159 Z M43.378022,73.2969577 C43.378022,73.4861111 43.189011,73.6752646 43,73.6752646 C42.810989,73.6752646 42.621978,73.4861111 42.621978,73.2969577 L42.621978,60.9074074 L43.378022,60.9074074 L43.378022,73.2969577 L43.378022,73.2969577 Z M46.4967033,55.5165344 L46.4967033,57.8809524 C46.4967033,58.4484127 46.0241758,58.9212963 45.4571429,58.9212963 L39.9758242,58.9212963 C39.4087912,58.9212963 38.9362637,58.4484127 38.9362637,57.8809524 L38.9362637,55.5165344 C38.9362637,54.9490741 39.4087912,54.4761905 39.9758242,54.4761905 L45.4571429,54.4761905 C46.0241758,54.4761905 46.4967033,54.9490741 46.4967033,55.5165344 L46.4967033,55.5165344 Z M48.1978022,52.5846561 L45.5516484,52.5846561 L40.0703297,52.5846561 L37.4241758,52.5846561 L35.0615385,45.3022487 C35.0615385,45.207672 35.0615385,45.1130952 34.967033,45.0185185 L34.967033,34.6150794 C34.967033,30.359127 38.4637363,26.8597884 42.7164835,26.8597884 C46.9692308,26.8597884 50.4659341,30.359127 50.4659341,34.6150794 L50.4659341,45.3968254 L48.1978022,52.5846561 L48.1978022,52.5846561 Z M61.6175824,43.7890212 C61.6175824,44.0727513 61.4285714,44.2619048 61.1450549,44.2619048 L52.5450549,44.2619048 L52.5450549,34.5205026 C52.5450549,29.1296296 48.1978022,24.7791005 42.810989,24.7791005 C37.4241758,24.7791005 33.0769231,29.1296296 33.0769231,34.5205026 L33.0769231,44.3564815 L24.4769231,44.3564815 C24.1934066,44.3564815 24.0043956,44.167328 24.0043956,43.8835979 L24.0043956,2.64814815 C24.0043956,2.36441799 24.1934066,2.17526455 24.4769231,2.17526455 L61.2395604,2.17526455 C61.5230769,2.17526455 61.7120879,2.36441799 61.7120879,2.64814815 L61.7120879,43.7890212 L61.6175824,43.7890212 Z M83.5428571,10.0251323 C83.5428571,10.3088624 83.3538462,10.4980159 83.0703297,10.4980159 L63.6021978,10.4980159 L63.6021978,8.51190476 L83.0703297,8.51190476 C83.3538462,8.51190476 83.5428571,8.7010582 83.5428571,8.98478836 L83.5428571,10.0251323 L83.5428571,10.0251323 Z" id="Shape"></path>
                    </g>
                </g>
            </g>
        </g>
    </g>
</svg>