<?xml version="1.0" encoding="UTF-8" standalone="no"?>
<svg width="92px" height="58px" viewBox="0 0 92 58" version="1.1" xmlns="http://www.w3.org/2000/svg" xmlns:xlink="http://www.w3.org/1999/xlink">
    <!-- Generator: Sketch 41.2 (35397) - http://www.bohemiancoding.com/sketch -->
    <title>Group 4</title>
    <desc>Created with Sketch.</desc>
    <defs></defs>
    <g id="Page-1" stroke="none" stroke-width="1" fill="none" fill-rule="evenodd">
        <g id="Kass-Website" transform="translate(-938.000000, -1437.000000)">
            <g id="Service" transform="translate(146.000000, 1067.000000)">
                <g id="Group-4" transform="translate(794.000000, 372.000000)">
                    <g id="Page-1" transform="translate(0.000000, 12.902901)">
                        <path d="M4.25290345,30.051806 C4.25290345,30.051806 16.6988345,16.7489147 23.8332828,8.79161954 C31.5458,0.189938298 44.9483517,0.189938298 44.9483517,0.189938298 L87.683731,0.189938298 L65.8104207,27.1342323 L10.1435931,27.1839464 C10.1435931,27.1839464 5.77355862,28.027948 4.25290345,30.051806" id="Fill-1" fill="#FEFEFE"></path>
                        <path d="M4.25290345,30.051806 C4.25290345,30.051806 16.6988345,16.7489147 23.8332828,8.79161954 C31.5458,0.189938298 44.9483517,0.189938298 44.9483517,0.189938298 L87.683731,0.189938298 L65.8104207,27.1342323 L10.1435931,27.1839464 C10.1435931,27.1839464 5.77355862,28.027948 4.25290345,30.051806 L4.25290345,30.051806 Z" id="Stroke-3" stroke="#4A4A4A" stroke-width="4" stroke-linecap="round" stroke-linejoin="round"></path>
                        <path d="M65.8103448,40.416441 L0.189655172,40.416441 C0.189655172,40.416441 0.948275862,27.1340426 11.1896552,27.1340426 L65.8103448,27.1340426 L65.8103448,40.416441 Z" id="Fill-5" fill="#FEFEFE"></path>
                        <path d="M65.8103448,40.416441 L0.189655172,40.416441 C0.189655172,40.416441 0.948275862,27.1340426 11.1896552,27.1340426 L65.8103448,27.1340426 L65.8103448,40.416441 L65.8103448,40.416441 Z" id="Stroke-7" stroke="#4A4A4A" stroke-width="4" stroke-linecap="round" stroke-linejoin="round"></path>
                        <polygon id="Fill-9" fill="#FEFEFE" points="65.8103448 27.1340426 87.6840345 0.189748549 87.6840345 12.9662774 65.8103448 40.416441"></polygon>
                        <polygon id="Stroke-11" stroke="#4A4A4A" stroke-width="4" stroke-linecap="round" stroke-linejoin="round" points="65.8103448 27.1340426 87.6840345 0.189748549 87.6840345 12.9662774 65.8103448 40.416441"></polygon>
                    </g>
                    <g id="Page-1-Copy">
                        <path d="M4.25290345,30.051806 C4.25290345,30.051806 16.6988345,16.7489147 23.8332828,8.79161954 C31.5458,0.189938298 44.9483517,0.189938298 44.9483517,0.189938298 L87.683731,0.189938298 L65.8104207,27.1342323 L10.1435931,27.1839464 C10.1435931,27.1839464 5.77355862,28.027948 4.25290345,30.051806" id="Fill-1" fill="#FEFEFE"></path>
                        <path d="M4.25290345,30.051806 C4.25290345,30.051806 16.6988345,16.7489147 23.8332828,8.79161954 C31.5458,0.189938298 44.9483517,0.189938298 44.9483517,0.189938298 L87.683731,0.189938298 L65.8104207,27.1342323 L10.1435931,27.1839464 C10.1435931,27.1839464 5.77355862,28.027948 4.25290345,30.051806 L4.25290345,30.051806 Z" id="Stroke-3" stroke="#4A4A4A" stroke-width="4" stroke-linecap="round" stroke-linejoin="round"></path>
                        <path d="M65.8103448,40.416441 L0.189655172,40.416441 C0.189655172,40.416441 0.948275862,27.1340426 11.1896552,27.1340426 L65.8103448,27.1340426 L65.8103448,40.416441 Z" id="Fill-5" fill="#FEFEFE"></path>
                        <path d="M65.8103448,40.416441 L0.189655172,40.416441 C0.189655172,40.416441 0.948275862,27.1340426 11.1896552,27.1340426 L65.8103448,27.1340426 L65.8103448,40.416441 L65.8103448,40.416441 Z" id="Stroke-7" stroke="#4A4A4A" stroke-width="4" stroke-linecap="round" stroke-linejoin="round"></path>
                        <polygon id="Fill-9" fill="#FEFEFE" points="65.8103448 27.1340426 87.6840345 0.189748549 87.6840345 12.9662774 65.8103448 40.416441"></polygon>
                        <polygon id="Stroke-11" stroke="#4A4A4A" stroke-width="4" stroke-linecap="round" stroke-linejoin="round" points="65.8103448 27.1340426 87.6840345 0.189748549 87.6840345 12.9662774 65.8103448 40.416441"></polygon>
                    </g>
                </g>
            </g>
        </g>
    </g>
</svg>