<?xml version="1.0" encoding="UTF-8" standalone="no"?>
<svg width="64px" height="82px" viewBox="0 0 64 82" version="1.1" xmlns="http://www.w3.org/2000/svg" xmlns:xlink="http://www.w3.org/1999/xlink">
    <!-- Generator: Sketch 41.2 (35397) - http://www.bohemiancoding.com/sketch -->
    <title>noun_366251_cc</title>
    <desc>Created with Sketch.</desc>
    <defs></defs>
    <g id="Page-1" stroke="none" stroke-width="1" fill="none" fill-rule="evenodd">
        <g id="Kass-Website" transform="translate(-1634.000000, -3567.000000)" fill="#FFFFFF">
            <g id="Contact" transform="translate(148.000000, 3203.000000)">
                <g id="noun_366251_cc" transform="translate(1486.000000, 364.000000)">
                    <g id="Group">
                        <g id="Shape">
                            <path d="M32.002,0.493 C14.501,0.493 0.264,14.73 0.264,32.229 C0.264,44.26 8.425,56.865 15.272,65.321 C20.875,72.239 29.958,81.322 31.957,81.489 L32.25,81.507 C34.389,81.507 43.823,71.738 48.897,65.403 C55.667,56.953 63.737,44.337 63.737,32.229 C63.736,14.73 49.5,0.493 32.002,0.493 L32.002,0.493 Z M32.178,77.562 C27.576,73.904 3.894,51.752 3.894,32.23 C3.894,16.732 16.503,4.124 32.002,4.124 C47.498,4.124 60.106,16.732 60.106,32.23 C60.105,51.684 36.708,73.912 32.178,77.562 L32.178,77.562 Z"></path>
                            <path d="M31.999,9.194 C19.567,9.194 9.489,19.276 9.489,31.71 C9.489,34.375 9.951,36.93 10.804,39.306 C13.917,47.999 22.231,54.219 31.998,54.219 C41.334,54.219 49.341,48.543 52.746,40.45 C53.882,37.761 54.51,34.807 54.51,31.71 C54.511,19.276 44.433,9.194 31.999,9.194 L31.999,9.194 Z M49.401,39.042 C46.45,46.057 39.619,50.589 31.999,50.589 C24.045,50.589 16.901,45.563 14.221,38.078 C13.49,36.043 13.119,33.9 13.119,31.71 C13.119,21.296 21.589,12.824 31.999,12.824 C42.41,12.824 50.881,21.296 50.881,31.71 C50.881,34.25 50.384,36.716 49.401,39.042 L49.401,39.042 Z"></path>
                        </g>
                    </g>
                </g>
            </g>
        </g>
    </g>
</svg>