<?xml version="1.0" encoding="UTF-8" standalone="no"?>
<svg width="47px" height="61px" viewBox="0 0 47 61" version="1.1" xmlns="http://www.w3.org/2000/svg" xmlns:xlink="http://www.w3.org/1999/xlink">
    <!-- Generator: Sketch 41.2 (35397) - http://www.bohemiancoding.com/sketch -->
    <title>noun_224411_cc</title>
    <desc>Created with Sketch.</desc>
    <defs></defs>
    <g id="Page-1" stroke="none" stroke-width="1" fill="none" fill-rule="evenodd">
        <g id="Kass-Website" transform="translate(-1202.000000, -2743.000000)">
            <g id="PROCESS" transform="translate(-4.000000, 2134.000000)">
                <g id="noun_224411_cc" transform="translate(1206.000000, 609.000000)">
                    <g id="Group">
                        <path d="M39.0133571,40.5961778 C37.7007143,40.5961778 36.6358286,41.6711333 36.6358286,42.9975444 L36.6358286,46.1193889 C36.6358286,47.5013778 35.5212571,48.6251333 34.1528857,48.6251333 L29.5227143,48.6251333 L32.9611,45.1528778 C33.8910286,44.2134778 33.8910286,42.6945778 32.9611,41.7565333 C32.0318429,40.8178111 30.5251571,40.8178111 29.5972429,41.7565333 L22.0973857,49.3273111 C21.1688,50.2653556 21.1688,51.7862889 22.0973857,52.7236556 L29.5972429,60.2957889 C30.0612,60.7648111 30.6715286,60.9993222 31.2791714,60.9993222 C31.8874857,60.9993222 32.4964714,60.7648111 32.9611,60.2964667 C33.8910286,59.3591 33.8910286,57.8381667 32.9611,56.9008 L29.5227143,53.4285444 L34.1528857,53.4285444 C38.1438571,53.4285444 41.3922286,50.1494556 41.3922286,46.1200667 L41.3922286,42.9975444 C41.3922286,41.6711333 40.3280143,40.5961778 39.0133571,40.5961778 L39.0133571,40.5961778 Z" id="Shape" fill="#FFFFFF"></path>
                        <path d="M24.8730714,11.2985556 L34.1528857,11.2985556 C35.5212571,11.2985556 36.6358286,12.4229889 36.6358286,13.8043 L36.6358286,16.4808444 C36.6358286,17.8072556 37.7007143,18.8822111 39.0133571,18.8822111 C40.3273429,18.8822111 41.3922286,17.8072556 41.3922286,16.4808444 L41.3922286,13.8043 C41.3922286,9.77491111 38.1438571,6.4965 34.1528857,6.4965 L24.8730714,6.4965 C23.5590857,6.4965 22.4948714,7.57145556 22.4948714,8.89718889 C22.4948714,10.2229222 23.5590857,11.2985556 24.8730714,11.2985556 L24.8730714,11.2985556 Z" id="Shape" fill="#FFFFFF"></path>
                        <path d="M12.2334286,0 L5.5507,0 C2.5333,0 0.0792285714,2.47795556 0.0792285714,5.52388889 L0.0792285714,12.2698111 C0.0792285714,15.3157444 2.5333,17.7937 5.5507,17.7937 L12.2334286,17.7937 C15.2501571,17.7937 17.7042286,15.3157444 17.7042286,12.2698111 L17.7042286,5.52388889 C17.7042286,2.47795556 15.2501571,0 12.2334286,0 L12.2334286,0 Z M12.9471571,12.2698111 C12.9471571,12.6676667 12.6268857,12.9909667 12.2334286,12.9909667 L5.5507,12.9909667 C5.15724286,12.9909667 4.83697143,12.6669889 4.83697143,12.2698111 L4.83697143,5.52388889 C4.83697143,5.12603333 5.15724286,4.80273333 5.5507,4.80273333 L12.2334286,4.80273333 C12.6268857,4.80273333 12.9471571,5.12671111 12.9471571,5.52388889 L12.9471571,12.2698111 L12.9471571,12.2698111 Z" id="Shape" fill="#FFFFFF"></path>
                        <path d="M12.2334286,20.9406222 L5.5507,20.9406222 C2.5333,20.9406222 0.0792285714,23.4185778 0.0792285714,26.4651889 L0.0792285714,33.2104333 C0.0792285714,36.2563667 2.5333,38.735 5.5507,38.735 L12.2334286,38.735 C15.2501571,38.735 17.7042286,36.2563667 17.7042286,33.2104333 L17.7042286,26.4651889 C17.7042286,23.4185778 15.2501571,20.9406222 12.2334286,20.9406222 L12.2334286,20.9406222 Z M12.9471571,33.2097556 C12.9471571,33.6082889 12.6268857,33.9322667 12.2334286,33.9322667 L5.5507,33.9322667 C5.15724286,33.9322667 4.83697143,33.6076111 4.83697143,33.2097556 L4.83697143,26.4645111 C4.83697143,26.0659778 5.15724286,25.7426778 5.5507,25.7426778 L12.2334286,25.7426778 C12.6268857,25.7426778 12.9471571,26.0666556 12.9471571,26.4645111 L12.9471571,33.2097556 L12.9471571,33.2097556 Z" id="Shape" fill="#FFFFFF"></path>
                        <path d="M12.2334286,41.8805667 L5.5507,41.8805667 C2.5333,41.8805667 0.0792285714,44.3585222 0.0792285714,47.4044556 L0.0792285714,54.1503778 C0.0792285714,57.1963111 2.5333,59.6722333 5.5507,59.6722333 L12.2334286,59.6722333 C15.2501571,59.6722333 17.7042286,57.1963111 17.7042286,54.1503778 L17.7042286,47.4044556 C17.7042286,44.3585222 15.2501571,41.8805667 12.2334286,41.8805667 L12.2334286,41.8805667 Z" id="Shape" fill="#FFFFFF"></path>
                        <path d="M46.859,32.0677 C46.7347857,31.6400222 46.4621857,31.2875778 46.0922286,31.0747556 L45.3066571,30.6111556 C45.1535714,30.5230444 45.0703143,30.3447889 45.0938143,30.1495889 C45.1139571,29.9266 45.1341,29.7036111 45.1341,29.4806222 C45.1341,29.2562778 45.1146286,29.0332889 45.0931429,28.8231778 C45.0716571,28.6354333 45.1549143,28.4578556 45.3093429,28.3690667 L46.0949143,27.9041111 C46.8838429,27.4310222 47.1463714,26.4380778 46.6931571,25.6410111 L45.9673429,24.3905111 C45.6779571,23.8794667 45.1341,23.5609111 44.5452571,23.5609111 C44.2491571,23.5609111 43.9644714,23.6375 43.7234286,23.7818667 L42.9432286,24.2427556 C42.7914857,24.3308667 42.5806571,24.3132444 42.4363,24.2081889 L42.2174143,24.0428111 C41.9723429,23.8401556 41.7393571,23.6754556 41.4284857,23.5385444 C41.3318,23.4904222 41.3109857,23.2911556 41.3109857,23.1325556 L41.3109857,22.2053556 C41.3109857,20.9948444 39.9103857,20.9948444 39.3839857,20.9948444 L37.9511571,20.9948444 C37.4932429,20.9948444 36.4263429,20.9948444 36.4263429,22.2053556 L36.4263429,23.1129 C36.4263429,23.2491333 36.3122,23.4409444 36.0892857,23.5338 C35.6166,23.7513667 35.2231429,23.9784222 34.9169714,24.2102222 C34.7820143,24.3146 34.5564143,24.3281556 34.4147429,24.2447889 L33.6338714,23.7825444 C33.3935,23.6375 33.1088143,23.5602333 32.8086857,23.5602333 C32.2211857,23.5602333 31.6759857,23.8781111 31.3886143,24.3864444 L30.6587714,25.6450778 C30.4506286,26.0178556 30.3928857,26.4482444 30.4956143,26.9077778 C30.6151286,27.3429111 30.8816857,27.6879 31.2630571,27.9034333 L32.0486286,28.3690667 C32.2017143,28.4571778 32.2849714,28.6340778 32.2587857,28.8591 C32.2413286,29.0726 32.2232,29.2854222 32.2232,29.4982444 C32.2232,29.7131 32.2406571,29.9286333 32.2628143,30.1767 C32.2843,30.3637667 32.2003714,30.5420222 32.0526571,30.6287778 L31.2603714,31.0761111 C30.4734571,31.5498778 30.2109286,32.5428222 30.6601143,33.3344667 L31.3698143,34.5910667 C31.6592,35.1007556 32.2030571,35.4186333 32.7912286,35.4186333 C33.0913571,35.4186333 33.3780571,35.3413667 33.6130571,35.1983556 L34.3932571,34.7367889 C34.5456714,34.6493556 34.7565,34.6663 34.9035429,34.7733889 C35.2090429,34.9997667 35.6172714,35.2275 36.1174857,35.4491333 C36.3222714,35.5399556 36.4478286,35.7358333 36.4478286,35.8673222 L36.4478286,36.7728333 C36.4478286,37.6939333 37.0595,38.6794222 37.9726429,38.6794222 L39.4061429,38.6794222 C40.3239857,38.6794222 41.3324714,37.6824111 41.3324714,36.7728333 L41.3324714,35.868 C41.3324714,35.7582 41.3452286,35.4986111 41.4768286,35.4471 C41.8803571,35.2634222 42.1744429,35.0485667 42.5564857,34.7693222 C42.6921143,34.6649444 42.8807857,34.6581667 43.0164143,34.7334 L43.7798286,35.1956444 C44.0181857,35.3413667 44.3042143,35.4193111 44.6056857,35.4193111 C45.1790857,35.4193111 45.7075,35.1136333 46.0271,34.5917444 L46.7515714,33.3026111 C46.9301714,32.8844222 46.9697857,32.4459 46.859,32.0677 L46.859,32.0677 Z M38.6803286,32.7739444 C37.0762857,32.7739444 35.7703571,31.4570222 35.7703571,29.8371333 C35.7703571,28.2172444 37.0762857,26.9003222 38.6803286,26.9003222 C40.2863857,26.9003222 41.5916429,28.2179222 41.5916429,29.8371333 C41.5916429,31.4570222 40.2863857,32.7739444 38.6803286,32.7739444 L38.6803286,32.7739444 Z" id="Shape" fill="#E21318"></path>
                    </g>
                </g>
            </g>
        </g>
    </g>
</svg>