<?xml version="1.0" encoding="UTF-8" standalone="no"?>
<svg width="56px" height="56px" viewBox="0 0 56 56" version="1.1" xmlns="http://www.w3.org/2000/svg" xmlns:xlink="http://www.w3.org/1999/xlink">
    <!-- Generator: Sketch 41.2 (35397) - http://www.bohemiancoding.com/sketch -->
    <title>Group</title>
    <desc>Created with Sketch.</desc>
    <defs></defs>
    <g id="Page-1" stroke="none" stroke-width="1" fill="none" fill-rule="evenodd">
        <g id="Kass-Website" transform="translate(-810.000000, -2745.000000)">
            <g id="PROCESS" transform="translate(-4.000000, 2134.000000)">
                <g id="noun_120699_cc" transform="translate(814.000000, 611.000000)">
                    <g id="Group">
                        <g id="Shape">
                            <path d="M50.2960889,0 L5.70391111,0 C2.55857778,0 0,2.55857778 0,5.70391111 L0,50.2967111 C0,53.4414222 2.55857778,56 5.70391111,56 L50.2967111,56 C53.4414222,56 56,53.4414222 56,50.2960889 L56,5.70391111 C56,2.55857778 53.4414222,0 50.2960889,0 L50.2960889,0 Z M53.5111111,50.2960889 C53.5111111,52.0688 52.0688,53.5111111 50.2960889,53.5111111 L5.70391111,53.5111111 C3.9312,53.5111111 2.48888889,52.0688 2.48888889,50.2960889 L2.48888889,5.70391111 C2.48888889,3.9312 3.9312,2.48888889 5.70391111,2.48888889 L50.2967111,2.48888889 C52.0688,2.48888889 53.5111111,3.9312 53.5111111,5.70391111 L53.5111111,50.2960889 L53.5111111,50.2960889 Z" fill="#FFFFFF"></path>
                            <path d="M22.4,16.1777778 L18.6666667,16.1777778 L18.6666667,12.4444444 C18.6666667,11.7575111 18.1091556,11.2 17.4222222,11.2 C16.7352889,11.2 16.1777778,11.7575111 16.1777778,12.4444444 L16.1777778,16.1777778 L12.4444444,16.1777778 C11.7575111,16.1777778 11.2,16.7352889 11.2,17.4222222 C11.2,18.1091556 11.7575111,18.6666667 12.4444444,18.6666667 L16.1777778,18.6666667 L16.1777778,22.4 C16.1777778,23.0869333 16.7352889,23.6444444 17.4222222,23.6444444 C18.1091556,23.6444444 18.6666667,23.0869333 18.6666667,22.4 L18.6666667,18.6666667 L22.4,18.6666667 C23.0869333,18.6666667 23.6444444,18.1091556 23.6444444,17.4222222 C23.6444444,16.7352889 23.0869333,16.1777778 22.4,16.1777778 L22.4,16.1777778 Z" fill="#E21318"></path>
                            <path d="M43.5555556,16.1777778 L33.6,16.1777778 C32.9130667,16.1777778 32.3555556,16.7352889 32.3555556,17.4222222 C32.3555556,18.1091556 32.9130667,18.6666667 33.6,18.6666667 L43.5555556,18.6666667 C44.2424889,18.6666667 44.8,18.1091556 44.8,17.4222222 C44.8,16.7352889 44.2424889,16.1777778 43.5555556,16.1777778 L43.5555556,16.1777778 Z" fill="#FFFFFF"></path>
                            <path d="M23.2798222,32.7201778 C22.7944889,32.2342222 22.0055111,32.2342222 21.5201778,32.7201778 L17.4222222,36.8181333 L13.3242667,32.7201778 C12.8389333,32.2342222 12.0499556,32.2342222 11.5646222,32.7201778 C11.0786667,33.2061333 11.0786667,33.9938667 11.5646222,34.4798222 L15.6625778,38.5777778 L11.5646222,42.6757333 C11.0786667,43.1616889 11.0786667,43.9494222 11.5646222,44.4353778 C11.8072889,44.6786667 12.1258667,44.8 12.4444444,44.8 C12.7630222,44.8 13.0816,44.6786667 13.3242667,44.4353778 L17.4222222,40.3374222 L21.5201778,44.4353778 C21.7628444,44.6786667 22.0814222,44.8 22.4,44.8 C22.7185778,44.8 23.0371556,44.6786667 23.2798222,44.4353778 C23.7657778,43.9494222 23.7657778,43.1616889 23.2798222,42.6757333 L19.1818667,38.5777778 L23.2798222,34.4798222 C23.7657778,33.9938667 23.7657778,33.2061333 23.2798222,32.7201778 L23.2798222,32.7201778 Z" fill="#FFFFFF"></path>
                            <path d="M43.5555556,34.8444444 L33.6,34.8444444 C32.9130667,34.8444444 32.3555556,35.4019556 32.3555556,36.0888889 C32.3555556,36.7758222 32.9130667,37.3333333 33.6,37.3333333 L43.5555556,37.3333333 C44.2424889,37.3333333 44.8,36.7758222 44.8,36.0888889 C44.8,35.4019556 44.2424889,34.8444444 43.5555556,34.8444444 L43.5555556,34.8444444 Z" fill="#FFFFFF"></path>
                            <path d="M43.5555556,39.8222222 L33.6,39.8222222 C32.9130667,39.8222222 32.3555556,40.3797333 32.3555556,41.0666667 C32.3555556,41.7536 32.9130667,42.3111111 33.6,42.3111111 L43.5555556,42.3111111 C44.2424889,42.3111111 44.8,41.7536 44.8,41.0666667 C44.8,40.3797333 44.2424889,39.8222222 43.5555556,39.8222222 L43.5555556,39.8222222 Z" fill="#FFFFFF"></path>
                        </g>
                    </g>
                </g>
            </g>
        </g>
    </g>
</svg>