<?xml version="1.0" encoding="UTF-8" standalone="no"?>
<svg width="91px" height="57px" viewBox="0 0 91 57" version="1.1" xmlns="http://www.w3.org/2000/svg" xmlns:xlink="http://www.w3.org/1999/xlink">
    <!-- Generator: Sketch 41.2 (35397) - http://www.bohemiancoding.com/sketch -->
    <title>noun_375204_cc</title>
    <desc>Created with Sketch.</desc>
    <defs></defs>
    <g id="Page-1" stroke="none" stroke-width="1" fill="none" fill-rule="evenodd">
        <g id="Kass-Website" transform="translate(-939.000000, -1969.000000)" fill="#4A4A4A">
            <g id="Service" transform="translate(146.000000, 1067.000000)">
                <g id="noun_375204_cc" transform="translate(793.000000, 902.000000)">
                    <g id="Group">
                        <g id="a-link">
                            <g>
                                <g id="a">
                                    <path d="M90.4691883,0.492790515 C90.2469391,0.265388225 89.9677161,0.150403772 89.6315192,0.147837154 L15.8180919,0 C15.4808685,0.00295160985 15.1852206,0.117936063 14.9311482,0.34495336 L0.395126082,14.8822735 C0.168129057,15.1363687 0.0531548709,15.432043 0.0502035246,15.7692965 L0.0502035246,55.6853282 C0.0531548709,56.0225817 0.168129057,56.3018296 0.395126082,56.523072 C0.649198502,56.782942 0.944846409,56.9143528 1.2820698,56.9173045 L75.2433211,56.9173045 C75.5805445,56.9143528 75.8597675,56.782942 76.0809902,56.523072 L90.3213644,42.2814262 C90.4238916,42.2467768 90.506016,42.1810714 90.5677376,42.08431 C90.8283543,41.8621692 90.9597534,41.5829213 90.9619348,41.2465661 L90.8633855,1.37981344 C90.8601775,1.04320159 90.7287785,0.747527278 90.4691883,0.492790515 L90.4691883,0.492790515 Z M4.23854887,54.4533519 L16.2615637,42.4292633 L74.0114548,42.4785424 L74.0114548,54.4533519 L4.23854887,54.4533519 L4.23854887,54.4533519 Z M17.0499582,39.9653107 L17.0499582,17.0012728 L74.0114548,17.0012728 L74.0114548,40.0145898 L17.0499582,39.9653107 L17.0499582,39.9653107 Z M17.0499582,14.5373202 L17.0499582,2.46395257 L86.6750402,2.61178973 L74.7505746,14.5373202 L17.0499582,14.5373202 L17.0499582,14.5373202 Z M76.4751874,42.4785424 L86.7243148,42.4785424 L76.4751874,52.7285851 L76.4751874,42.4785424 L76.4751874,42.4785424 Z M76.4751874,16.262087 L88.399653,4.33655653 L88.4982023,40.0145898 L76.4751874,40.0145898 L76.4751874,16.262087 L76.4751874,16.262087 Z" id="Shape"></path>
                                </g>
                            </g>
                        </g>
                    </g>
                </g>
            </g>
        </g>
    </g>
</svg>